<svg xmlns="http://www.w3.org/2000/svg" viewBox="0 0 1372.95 288"><defs><style>.cls-1{font-size:114px;font-family:CenturyGothic, Century Gothic;}.cls-1,.cls-2,.cls-3{fill:#b5b5ff;}.cls-3,.cls-4{fill-rule:evenodd;}.cls-4{fill:#fff;}</style></defs><g id="Layer_1" data-name="Layer 1"><text class="cls-1" transform="translate(310.95 182.7)">GAMBLELAND</text><path class="cls-2" d="M1090.15,183.45a3.59,3.59,0,0,1-2.68-1.13,3.71,3.71,0,0,1-1.11-2.7,3.76,3.76,0,0,1,1.11-2.71,3.57,3.57,0,0,1,2.68-1.15,3.85,3.85,0,1,1,0,7.69Z"/><path class="cls-2" d="M1118,183.52c-5.18,0-9.3-1.64-12.39-4.9s-4.63-7.61-4.63-13q0-8.82,4.82-13.78t13-5q7.83,0,12.22,4.82t4.39,13.36q0,8.38-4.73,13.42T1118,183.52Zm.41-31.92a10.67,10.67,0,0,0-8.55,3.67q-3.13,3.67-3.14,10.13,0,6.22,3.18,9.81a10.77,10.77,0,0,0,8.51,3.59q5.43,0,8.36-3.52t2.92-10q0-6.57-2.92-10.12T1118.42,151.6Z"/><path class="cls-2" d="M1173.45,182.7h-5.61v-20q0-11.15-8.13-11.14a8.81,8.81,0,0,0-7,3.16,11.75,11.75,0,0,0-2.75,8v20h-5.61v-35H1150v5.81h.14a12.63,12.63,0,0,1,11.48-6.63q5.75,0,8.79,3.71t3,10.71Z"/><path class="cls-2" d="M1189.61,182.7H1184V130.88h5.6Z"/><path class="cls-2" d="M1203.83,138.81a3.56,3.56,0,0,1-2.56-1,3.46,3.46,0,0,1-1.06-2.6,3.59,3.59,0,0,1,3.62-3.66,3.65,3.65,0,0,1,2.62,1,3.49,3.49,0,0,1,1.07,2.62,3.44,3.44,0,0,1-1.07,2.56A3.58,3.58,0,0,1,1203.83,138.81Zm2.74,43.89H1201v-35h5.61Z"/><path class="cls-2" d="M1247,182.7h-5.61v-20q0-11.15-8.13-11.14a8.82,8.82,0,0,0-7,3.16,11.75,11.75,0,0,0-2.75,8v20h-5.6v-35h5.6v5.81h.14a12.63,12.63,0,0,1,11.48-6.63q5.74,0,8.79,3.71t3,10.71Z"/><path class="cls-2" d="M1285.66,166.6H1261q.13,5.85,3.14,9a10.84,10.84,0,0,0,8.27,3.18,17.23,17.23,0,0,0,10.87-3.89v5.26q-4.61,3.35-12.2,3.35-7.42,0-11.65-4.77t-4.24-13.41q0-8.18,4.63-13.32a14.84,14.84,0,0,1,11.5-5.14q6.87,0,10.63,4.44t3.76,12.34Zm-5.74-4.75c0-3.24-.81-5.75-2.34-7.55a8,8,0,0,0-6.41-2.7,9.06,9.06,0,0,0-6.74,2.83,12.9,12.9,0,0,0-3.41,7.42Z"/><path class="cls-3" d="M243.56,144a71.79,71.79,0,0,1-12.91,41.19l17.17,17.24A96.48,96.48,0,0,0,267,133.07H242.74A72.85,72.85,0,0,1,243.56,144Zm-3.79-23.13A72.15,72.15,0,1,0,153.94,214v24.59a96.19,96.19,0,1,1,108.82-124.8Zm-68.34,95.26A71.93,71.93,0,0,0,223,194.43l17,17a96.23,96.23,0,0,1-79.47,28.09V215.31A72.85,72.85,0,0,0,171.43,216.13Z"/><path class="cls-4" d="M182.36,93.73H160.5V239.56A96.23,96.23,0,0,0,240,211.47l-17-17a71.92,71.92,0,0,1-40.64,20.88Z"/><rect class="cls-2" x="208.59" y="133.07" width="56.83" height="21.86"/></g></svg>